<?xml version="1.0" encoding="utf-8" standalone="no"?>
<!DOCTYPE svg PUBLIC "-//W3C//DTD SVG 1.1//EN"
  "http://www.w3.org/Graphics/SVG/1.1/DTD/svg11.dtd">
<svg xmlns:xlink="http://www.w3.org/1999/xlink" width="350.81625pt" height="711.456094pt" viewBox="0 0 350.81625 711.456094" xmlns="http://www.w3.org/2000/svg" version="1.1">
 <metadata>
  <rdf:RDF xmlns:dc="http://purl.org/dc/elements/1.1/" xmlns:cc="http://creativecommons.org/ns#" xmlns:rdf="http://www.w3.org/1999/02/22-rdf-syntax-ns#">
   <cc:Work>
    <dc:type rdf:resource="http://purl.org/dc/dcmitype/StillImage"/>
    <dc:date>2025-05-21T14:20:19.552568</dc:date>
    <dc:format>image/svg+xml</dc:format>
    <dc:creator>
     <cc:Agent>
      <dc:title>Matplotlib v3.10.1, https://matplotlib.org/</dc:title>
     </cc:Agent>
    </dc:creator>
   </cc:Work>
  </rdf:RDF>
 </metadata>
 <defs>
  <style type="text/css">*{stroke-linejoin: round; stroke-linecap: butt}</style>
 </defs>
 <g id="figure_1">
  <g id="patch_1">
   <path d="M 0 711.456094 
L 350.81625 711.456094 
L 350.81625 0 
L 0 0 
z
" style="fill: #ffffff"/>
  </g>
  <g id="axes_1">
   <g id="patch_2">
    <path d="M 195.43625 677.38 
L 343.61625 677.38 
L 343.61625 7.2 
L 195.43625 7.2 
z
" style="fill: #ffffff"/>
   </g>
   <g id="patch_3">
    <path d="M 195.43625 37.662727 
L 216.832672 37.662727 
L 216.832672 60.020692 
L 195.43625 60.020692 
z
" clip-path="url(#pb63e6b8165)" style="fill: #a58db3"/>
   </g>
   <g id="patch_4">
    <path d="M 195.43625 65.610183 
L 267.085248 65.610183 
L 267.085248 87.968148 
L 195.43625 87.968148 
z
" clip-path="url(#pb63e6b8165)" style="fill: #a58db3"/>
   </g>
   <g id="patch_5">
    <path d="M 195.43625 93.55764 
L 210.087154 93.55764 
L 210.087154 115.915605 
L 195.43625 115.915605 
z
" clip-path="url(#pb63e6b8165)" style="fill: #a58db3"/>
   </g>
   <g id="patch_6">
    <path d="M 195.43625 121.505096 
L 203.148368 121.505096 
L 203.148368 143.863061 
L 195.43625 143.863061 
z
" clip-path="url(#pb63e6b8165)" style="fill: #a58db3"/>
   </g>
   <g id="patch_7">
    <path d="M 195.43625 149.452552 
L 305.324258 149.452552 
L 305.324258 171.810517 
L 195.43625 171.810517 
z
" clip-path="url(#pb63e6b8165)" style="fill: #a58db3"/>
   </g>
   <g id="patch_8">
    <path d="M 195.43625 177.400008 
L 203.865762 177.400008 
L 203.865762 199.757973 
L 195.43625 199.757973 
z
" clip-path="url(#pb63e6b8165)" style="fill: #a58db3"/>
   </g>
   <g id="patch_9">
    <path d="M 195.43625 205.347465 
L 200.549472 205.347465 
L 200.549472 227.70543 
L 195.43625 227.70543 
z
" clip-path="url(#pb63e6b8165)" style="fill: #a58db3"/>
   </g>
   <g id="patch_10">
    <path d="M 195.43625 233.294921 
L 225.559906 233.294921 
L 225.559906 255.652886 
L 195.43625 255.652886 
z
" clip-path="url(#pb63e6b8165)" style="fill: #a58db3"/>
   </g>
   <g id="patch_11">
    <path d="M 195.43625 261.242377 
L 303.328757 261.242377 
L 303.328757 283.600342 
L 195.43625 283.600342 
z
" clip-path="url(#pb63e6b8165)" style="fill: #a58db3"/>
   </g>
   <g id="patch_12">
    <path d="M 195.43625 289.189833 
L 224.302743 289.189833 
L 224.302743 311.547798 
L 195.43625 311.547798 
z
" clip-path="url(#pb63e6b8165)" style="fill: #a58db3"/>
   </g>
   <g id="patch_13">
    <path d="M 195.43625 317.137289 
L 221.366624 317.137289 
L 221.366624 339.495254 
L 195.43625 339.495254 
z
" clip-path="url(#pb63e6b8165)" style="fill: #a58db3"/>
   </g>
   <g id="patch_14">
    <path d="M 195.43625 345.084746 
L 202.89386 345.084746 
L 202.89386 367.442711 
L 195.43625 367.442711 
z
" clip-path="url(#pb63e6b8165)" style="fill: #a58db3"/>
   </g>
   <g id="patch_15">
    <path d="M 195.43625 373.032202 
L 199.867338 373.032202 
L 199.867338 395.390167 
L 195.43625 395.390167 
z
" clip-path="url(#pb63e6b8165)" style="fill: #a58db3"/>
   </g>
   <g id="patch_16">
    <path d="M 195.43625 400.979658 
L 239.875177 400.979658 
L 239.875177 423.337623 
L 195.43625 423.337623 
z
" clip-path="url(#pb63e6b8165)" style="fill: #a58db3"/>
   </g>
   <g id="patch_17">
    <path d="M 195.43625 428.927114 
L 246.607175 428.927114 
L 246.607175 451.285079 
L 195.43625 451.285079 
z
" clip-path="url(#pb63e6b8165)" style="fill: #a58db3"/>
   </g>
   <g id="patch_18">
    <path d="M 195.43625 456.87457 
L 227.150845 456.87457 
L 227.150845 479.232535 
L 195.43625 479.232535 
z
" clip-path="url(#pb63e6b8165)" style="fill: #a58db3"/>
   </g>
   <g id="patch_19">
    <path d="M 195.43625 484.822027 
L 336.56006 484.822027 
L 336.56006 507.179992 
L 195.43625 507.179992 
z
" clip-path="url(#pb63e6b8165)" style="fill: #a58db3"/>
   </g>
   <g id="patch_20">
    <path d="M 195.43625 512.769483 
L 264.535662 512.769483 
L 264.535662 535.127448 
L 195.43625 535.127448 
z
" clip-path="url(#pb63e6b8165)" style="fill: #a58db3"/>
   </g>
   <g id="patch_21">
    <path d="M 195.43625 540.716939 
L 258.444176 540.716939 
L 258.444176 563.074904 
L 195.43625 563.074904 
z
" clip-path="url(#pb63e6b8165)" style="fill: #a58db3"/>
   </g>
   <g id="patch_22">
    <path d="M 195.43625 568.664395 
L 281.937107 568.664395 
L 281.937107 591.02236 
L 195.43625 591.02236 
z
" clip-path="url(#pb63e6b8165)" style="fill: #a58db3"/>
   </g>
   <g id="patch_23">
    <path d="M 195.43625 596.611852 
L 258.658122 596.611852 
L 258.658122 618.969817 
L 195.43625 618.969817 
z
" clip-path="url(#pb63e6b8165)" style="fill: #a58db3"/>
   </g>
   <g id="patch_24">
    <path d="M 195.43625 624.559308 
L 197.751476 624.559308 
L 197.751476 646.917273 
L 195.43625 646.917273 
z
" clip-path="url(#pb63e6b8165)" style="fill: #a58db3"/>
   </g>
   <g id="matplotlib.axis_1">
    <g id="xtick_1">
     <g id="line2d_1">
      <defs>
       <path id="m023c32e8b9" d="M 0 0 
L 0 2 
" style="stroke: #000000; stroke-width: 0.5"/>
      </defs>
      <g>
       <use xlink:href="#m023c32e8b9" x="195.43625" y="677.38" style="stroke: #000000; stroke-width: 0.5"/>
      </g>
     </g>
     <g id="text_1">
      <!-- 0 -->
      <g transform="translate(192.933828 689.322031) scale(0.09 -0.09)">
       <defs>
        <path id="ArialMT-30" d="M 266 2259 
Q 266 3072 433 3567 
Q 600 4063 929 4331 
Q 1259 4600 1759 4600 
Q 2128 4600 2406 4451 
Q 2684 4303 2865 4023 
Q 3047 3744 3150 3342 
Q 3253 2941 3253 2259 
Q 3253 1453 3087 958 
Q 2922 463 2592 192 
Q 2263 -78 1759 -78 
Q 1097 -78 719 397 
Q 266 969 266 2259 
z
M 844 2259 
Q 844 1131 1108 757 
Q 1372 384 1759 384 
Q 2147 384 2411 759 
Q 2675 1134 2675 2259 
Q 2675 3391 2411 3762 
Q 2147 4134 1753 4134 
Q 1366 4134 1134 3806 
Q 844 3388 844 2259 
z
" transform="scale(0.015625)"/>
       </defs>
       <use xlink:href="#ArialMT-30"/>
      </g>
     </g>
    </g>
    <g id="xtick_2">
     <g id="line2d_2">
      <g>
       <use xlink:href="#m023c32e8b9" x="248.45872" y="677.38" style="stroke: #000000; stroke-width: 0.5"/>
      </g>
     </g>
     <g id="text_2">
      <!-- 200000 -->
      <g transform="translate(233.444188 689.322031) scale(0.09 -0.09)">
       <defs>
        <path id="ArialMT-32" d="M 3222 541 
L 3222 0 
L 194 0 
Q 188 203 259 391 
Q 375 700 629 1000 
Q 884 1300 1366 1694 
Q 2113 2306 2375 2664 
Q 2638 3022 2638 3341 
Q 2638 3675 2398 3904 
Q 2159 4134 1775 4134 
Q 1369 4134 1125 3890 
Q 881 3647 878 3216 
L 300 3275 
Q 359 3922 746 4261 
Q 1134 4600 1788 4600 
Q 2447 4600 2831 4234 
Q 3216 3869 3216 3328 
Q 3216 3053 3103 2787 
Q 2991 2522 2730 2228 
Q 2469 1934 1863 1422 
Q 1356 997 1212 845 
Q 1069 694 975 541 
L 3222 541 
z
" transform="scale(0.015625)"/>
       </defs>
       <use xlink:href="#ArialMT-32"/>
       <use xlink:href="#ArialMT-30" transform="translate(55.615234 0)"/>
       <use xlink:href="#ArialMT-30" transform="translate(111.230469 0)"/>
       <use xlink:href="#ArialMT-30" transform="translate(166.845703 0)"/>
       <use xlink:href="#ArialMT-30" transform="translate(222.460938 0)"/>
       <use xlink:href="#ArialMT-30" transform="translate(278.076172 0)"/>
      </g>
     </g>
    </g>
    <g id="xtick_3">
     <g id="line2d_3">
      <g>
       <use xlink:href="#m023c32e8b9" x="301.481189" y="677.38" style="stroke: #000000; stroke-width: 0.5"/>
      </g>
     </g>
     <g id="text_3">
      <!-- 400000 -->
      <g transform="translate(286.466658 689.322031) scale(0.09 -0.09)">
       <defs>
        <path id="ArialMT-34" d="M 2069 0 
L 2069 1097 
L 81 1097 
L 81 1613 
L 2172 4581 
L 2631 4581 
L 2631 1613 
L 3250 1613 
L 3250 1097 
L 2631 1097 
L 2631 0 
L 2069 0 
z
M 2069 1613 
L 2069 3678 
L 634 1613 
L 2069 1613 
z
" transform="scale(0.015625)"/>
       </defs>
       <use xlink:href="#ArialMT-34"/>
       <use xlink:href="#ArialMT-30" transform="translate(55.615234 0)"/>
       <use xlink:href="#ArialMT-30" transform="translate(111.230469 0)"/>
       <use xlink:href="#ArialMT-30" transform="translate(166.845703 0)"/>
       <use xlink:href="#ArialMT-30" transform="translate(222.460938 0)"/>
       <use xlink:href="#ArialMT-30" transform="translate(278.076172 0)"/>
      </g>
     </g>
    </g>
    <g id="text_4">
     <!-- #entities -->
     <g transform="translate(250.904375 702.268594) scale(0.1 -0.1)">
      <defs>
       <path id="ArialMT-23" d="M 322 -78 
L 594 1253 
L 66 1253 
L 66 1719 
L 688 1719 
L 919 2853 
L 66 2853 
L 66 3319 
L 1013 3319 
L 1284 4659 
L 1753 4659 
L 1481 3319 
L 2466 3319 
L 2738 4659 
L 3209 4659 
L 2938 3319 
L 3478 3319 
L 3478 2853 
L 2844 2853 
L 2609 1719 
L 3478 1719 
L 3478 1253 
L 2516 1253 
L 2244 -78 
L 1775 -78 
L 2044 1253 
L 1063 1253 
L 791 -78 
L 322 -78 
z
M 1156 1719 
L 2138 1719 
L 2372 2853 
L 1388 2853 
L 1156 1719 
z
" transform="scale(0.015625)"/>
       <path id="ArialMT-65" d="M 2694 1069 
L 3275 997 
Q 3138 488 2766 206 
Q 2394 -75 1816 -75 
Q 1088 -75 661 373 
Q 234 822 234 1631 
Q 234 2469 665 2931 
Q 1097 3394 1784 3394 
Q 2450 3394 2872 2941 
Q 3294 2488 3294 1666 
Q 3294 1616 3291 1516 
L 816 1516 
Q 847 969 1125 678 
Q 1403 388 1819 388 
Q 2128 388 2347 550 
Q 2566 713 2694 1069 
z
M 847 1978 
L 2700 1978 
Q 2663 2397 2488 2606 
Q 2219 2931 1791 2931 
Q 1403 2931 1139 2672 
Q 875 2413 847 1978 
z
" transform="scale(0.015625)"/>
       <path id="ArialMT-6e" d="M 422 0 
L 422 3319 
L 928 3319 
L 928 2847 
Q 1294 3394 1984 3394 
Q 2284 3394 2536 3286 
Q 2788 3178 2913 3003 
Q 3038 2828 3088 2588 
Q 3119 2431 3119 2041 
L 3119 0 
L 2556 0 
L 2556 2019 
Q 2556 2363 2490 2533 
Q 2425 2703 2258 2804 
Q 2091 2906 1866 2906 
Q 1506 2906 1245 2678 
Q 984 2450 984 1813 
L 984 0 
L 422 0 
z
" transform="scale(0.015625)"/>
       <path id="ArialMT-74" d="M 1650 503 
L 1731 6 
Q 1494 -44 1306 -44 
Q 1000 -44 831 53 
Q 663 150 594 308 
Q 525 466 525 972 
L 525 2881 
L 113 2881 
L 113 3319 
L 525 3319 
L 525 4141 
L 1084 4478 
L 1084 3319 
L 1650 3319 
L 1650 2881 
L 1084 2881 
L 1084 941 
Q 1084 700 1114 631 
Q 1144 563 1211 522 
Q 1278 481 1403 481 
Q 1497 481 1650 503 
z
" transform="scale(0.015625)"/>
       <path id="ArialMT-69" d="M 425 3934 
L 425 4581 
L 988 4581 
L 988 3934 
L 425 3934 
z
M 425 0 
L 425 3319 
L 988 3319 
L 988 0 
L 425 0 
z
" transform="scale(0.015625)"/>
       <path id="ArialMT-73" d="M 197 991 
L 753 1078 
Q 800 744 1014 566 
Q 1228 388 1613 388 
Q 2000 388 2187 545 
Q 2375 703 2375 916 
Q 2375 1106 2209 1216 
Q 2094 1291 1634 1406 
Q 1016 1563 777 1677 
Q 538 1791 414 1992 
Q 291 2194 291 2438 
Q 291 2659 392 2848 
Q 494 3038 669 3163 
Q 800 3259 1026 3326 
Q 1253 3394 1513 3394 
Q 1903 3394 2198 3281 
Q 2494 3169 2634 2976 
Q 2775 2784 2828 2463 
L 2278 2388 
Q 2241 2644 2061 2787 
Q 1881 2931 1553 2931 
Q 1166 2931 1000 2803 
Q 834 2675 834 2503 
Q 834 2394 903 2306 
Q 972 2216 1119 2156 
Q 1203 2125 1616 2013 
Q 2213 1853 2448 1751 
Q 2684 1650 2818 1456 
Q 2953 1263 2953 975 
Q 2953 694 2789 445 
Q 2625 197 2315 61 
Q 2006 -75 1616 -75 
Q 969 -75 630 194 
Q 291 463 197 991 
z
" transform="scale(0.015625)"/>
      </defs>
      <use xlink:href="#ArialMT-23"/>
      <use xlink:href="#ArialMT-65" transform="translate(55.615234 0)"/>
      <use xlink:href="#ArialMT-6e" transform="translate(111.230469 0)"/>
      <use xlink:href="#ArialMT-74" transform="translate(166.845703 0)"/>
      <use xlink:href="#ArialMT-69" transform="translate(194.628906 0)"/>
      <use xlink:href="#ArialMT-74" transform="translate(216.845703 0)"/>
      <use xlink:href="#ArialMT-69" transform="translate(244.628906 0)"/>
      <use xlink:href="#ArialMT-65" transform="translate(266.845703 0)"/>
      <use xlink:href="#ArialMT-73" transform="translate(322.460938 0)"/>
     </g>
    </g>
   </g>
   <g id="matplotlib.axis_2">
    <g id="ytick_1">
     <g id="line2d_4">
      <defs>
       <path id="med381c0b9b" d="M 0 0 
L -2 0 
" style="stroke: #000000; stroke-width: 0.5"/>
      </defs>
      <g>
       <use xlink:href="#med381c0b9b" x="195.43625" y="48.84171" style="stroke: #000000; stroke-width: 0.5"/>
      </g>
     </g>
     <g id="text_5">
      <!-- cortical collecting duct -->
      <g transform="translate(101.900781 52.062725) scale(0.09 -0.09)">
       <defs>
        <path id="ArialMT-63" d="M 2588 1216 
L 3141 1144 
Q 3050 572 2676 248 
Q 2303 -75 1759 -75 
Q 1078 -75 664 370 
Q 250 816 250 1647 
Q 250 2184 428 2587 
Q 606 2991 970 3192 
Q 1334 3394 1763 3394 
Q 2303 3394 2647 3120 
Q 2991 2847 3088 2344 
L 2541 2259 
Q 2463 2594 2264 2762 
Q 2066 2931 1784 2931 
Q 1359 2931 1093 2626 
Q 828 2322 828 1663 
Q 828 994 1084 691 
Q 1341 388 1753 388 
Q 2084 388 2306 591 
Q 2528 794 2588 1216 
z
" transform="scale(0.015625)"/>
        <path id="ArialMT-6f" d="M 213 1659 
Q 213 2581 725 3025 
Q 1153 3394 1769 3394 
Q 2453 3394 2887 2945 
Q 3322 2497 3322 1706 
Q 3322 1066 3130 698 
Q 2938 331 2570 128 
Q 2203 -75 1769 -75 
Q 1072 -75 642 372 
Q 213 819 213 1659 
z
M 791 1659 
Q 791 1022 1069 705 
Q 1347 388 1769 388 
Q 2188 388 2466 706 
Q 2744 1025 2744 1678 
Q 2744 2294 2464 2611 
Q 2184 2928 1769 2928 
Q 1347 2928 1069 2612 
Q 791 2297 791 1659 
z
" transform="scale(0.015625)"/>
        <path id="ArialMT-72" d="M 416 0 
L 416 3319 
L 922 3319 
L 922 2816 
Q 1116 3169 1280 3281 
Q 1444 3394 1641 3394 
Q 1925 3394 2219 3213 
L 2025 2691 
Q 1819 2813 1613 2813 
Q 1428 2813 1281 2702 
Q 1134 2591 1072 2394 
Q 978 2094 978 1738 
L 978 0 
L 416 0 
z
" transform="scale(0.015625)"/>
        <path id="ArialMT-61" d="M 2588 409 
Q 2275 144 1986 34 
Q 1697 -75 1366 -75 
Q 819 -75 525 192 
Q 231 459 231 875 
Q 231 1119 342 1320 
Q 453 1522 633 1644 
Q 813 1766 1038 1828 
Q 1203 1872 1538 1913 
Q 2219 1994 2541 2106 
Q 2544 2222 2544 2253 
Q 2544 2597 2384 2738 
Q 2169 2928 1744 2928 
Q 1347 2928 1158 2789 
Q 969 2650 878 2297 
L 328 2372 
Q 403 2725 575 2942 
Q 747 3159 1072 3276 
Q 1397 3394 1825 3394 
Q 2250 3394 2515 3294 
Q 2781 3194 2906 3042 
Q 3031 2891 3081 2659 
Q 3109 2516 3109 2141 
L 3109 1391 
Q 3109 606 3145 398 
Q 3181 191 3288 0 
L 2700 0 
Q 2613 175 2588 409 
z
M 2541 1666 
Q 2234 1541 1622 1453 
Q 1275 1403 1131 1340 
Q 988 1278 909 1158 
Q 831 1038 831 891 
Q 831 666 1001 516 
Q 1172 366 1500 366 
Q 1825 366 2078 508 
Q 2331 650 2450 897 
Q 2541 1088 2541 1459 
L 2541 1666 
z
" transform="scale(0.015625)"/>
        <path id="ArialMT-6c" d="M 409 0 
L 409 4581 
L 972 4581 
L 972 0 
L 409 0 
z
" transform="scale(0.015625)"/>
        <path id="ArialMT-20" transform="scale(0.015625)"/>
        <path id="ArialMT-67" d="M 319 -275 
L 866 -356 
Q 900 -609 1056 -725 
Q 1266 -881 1628 -881 
Q 2019 -881 2231 -725 
Q 2444 -569 2519 -288 
Q 2563 -116 2559 434 
Q 2191 0 1641 0 
Q 956 0 581 494 
Q 206 988 206 1678 
Q 206 2153 378 2554 
Q 550 2956 876 3175 
Q 1203 3394 1644 3394 
Q 2231 3394 2613 2919 
L 2613 3319 
L 3131 3319 
L 3131 450 
Q 3131 -325 2973 -648 
Q 2816 -972 2473 -1159 
Q 2131 -1347 1631 -1347 
Q 1038 -1347 672 -1080 
Q 306 -813 319 -275 
z
M 784 1719 
Q 784 1066 1043 766 
Q 1303 466 1694 466 
Q 2081 466 2343 764 
Q 2606 1063 2606 1700 
Q 2606 2309 2336 2618 
Q 2066 2928 1684 2928 
Q 1309 2928 1046 2623 
Q 784 2319 784 1719 
z
" transform="scale(0.015625)"/>
        <path id="ArialMT-64" d="M 2575 0 
L 2575 419 
Q 2259 -75 1647 -75 
Q 1250 -75 917 144 
Q 584 363 401 755 
Q 219 1147 219 1656 
Q 219 2153 384 2558 
Q 550 2963 881 3178 
Q 1213 3394 1622 3394 
Q 1922 3394 2156 3267 
Q 2391 3141 2538 2938 
L 2538 4581 
L 3097 4581 
L 3097 0 
L 2575 0 
z
M 797 1656 
Q 797 1019 1065 703 
Q 1334 388 1700 388 
Q 2069 388 2326 689 
Q 2584 991 2584 1609 
Q 2584 2291 2321 2609 
Q 2059 2928 1675 2928 
Q 1300 2928 1048 2622 
Q 797 2316 797 1656 
z
" transform="scale(0.015625)"/>
        <path id="ArialMT-75" d="M 2597 0 
L 2597 488 
Q 2209 -75 1544 -75 
Q 1250 -75 995 37 
Q 741 150 617 320 
Q 494 491 444 738 
Q 409 903 409 1263 
L 409 3319 
L 972 3319 
L 972 1478 
Q 972 1038 1006 884 
Q 1059 663 1231 536 
Q 1403 409 1656 409 
Q 1909 409 2131 539 
Q 2353 669 2445 892 
Q 2538 1116 2538 1541 
L 2538 3319 
L 3100 3319 
L 3100 0 
L 2597 0 
z
" transform="scale(0.015625)"/>
       </defs>
       <use xlink:href="#ArialMT-63"/>
       <use xlink:href="#ArialMT-6f" transform="translate(50 0)"/>
       <use xlink:href="#ArialMT-72" transform="translate(105.615234 0)"/>
       <use xlink:href="#ArialMT-74" transform="translate(138.916016 0)"/>
       <use xlink:href="#ArialMT-69" transform="translate(166.699219 0)"/>
       <use xlink:href="#ArialMT-63" transform="translate(188.916016 0)"/>
       <use xlink:href="#ArialMT-61" transform="translate(238.916016 0)"/>
       <use xlink:href="#ArialMT-6c" transform="translate(294.53125 0)"/>
       <use xlink:href="#ArialMT-20" transform="translate(316.748047 0)"/>
       <use xlink:href="#ArialMT-63" transform="translate(344.53125 0)"/>
       <use xlink:href="#ArialMT-6f" transform="translate(394.53125 0)"/>
       <use xlink:href="#ArialMT-6c" transform="translate(450.146484 0)"/>
       <use xlink:href="#ArialMT-6c" transform="translate(472.363281 0)"/>
       <use xlink:href="#ArialMT-65" transform="translate(494.580078 0)"/>
       <use xlink:href="#ArialMT-63" transform="translate(550.195312 0)"/>
       <use xlink:href="#ArialMT-74" transform="translate(600.195312 0)"/>
       <use xlink:href="#ArialMT-69" transform="translate(627.978516 0)"/>
       <use xlink:href="#ArialMT-6e" transform="translate(650.195312 0)"/>
       <use xlink:href="#ArialMT-67" transform="translate(705.810547 0)"/>
       <use xlink:href="#ArialMT-20" transform="translate(761.425781 0)"/>
       <use xlink:href="#ArialMT-64" transform="translate(789.208984 0)"/>
       <use xlink:href="#ArialMT-75" transform="translate(844.824219 0)"/>
       <use xlink:href="#ArialMT-63" transform="translate(900.439453 0)"/>
       <use xlink:href="#ArialMT-74" transform="translate(950.439453 0)"/>
      </g>
     </g>
    </g>
    <g id="ytick_2">
     <g id="line2d_5">
      <g>
       <use xlink:href="#med381c0b9b" x="195.43625" y="76.789166" style="stroke: #000000; stroke-width: 0.5"/>
      </g>
     </g>
     <g id="text_6">
      <!-- descending limb of loop of Henle -->
      <g transform="translate(59.361719 80.065025) scale(0.09 -0.09)">
       <defs>
        <path id="ArialMT-6d" d="M 422 0 
L 422 3319 
L 925 3319 
L 925 2853 
Q 1081 3097 1340 3245 
Q 1600 3394 1931 3394 
Q 2300 3394 2536 3241 
Q 2772 3088 2869 2813 
Q 3263 3394 3894 3394 
Q 4388 3394 4653 3120 
Q 4919 2847 4919 2278 
L 4919 0 
L 4359 0 
L 4359 2091 
Q 4359 2428 4304 2576 
Q 4250 2725 4106 2815 
Q 3963 2906 3769 2906 
Q 3419 2906 3187 2673 
Q 2956 2441 2956 1928 
L 2956 0 
L 2394 0 
L 2394 2156 
Q 2394 2531 2256 2718 
Q 2119 2906 1806 2906 
Q 1569 2906 1367 2781 
Q 1166 2656 1075 2415 
Q 984 2175 984 1722 
L 984 0 
L 422 0 
z
" transform="scale(0.015625)"/>
        <path id="ArialMT-62" d="M 941 0 
L 419 0 
L 419 4581 
L 981 4581 
L 981 2947 
Q 1338 3394 1891 3394 
Q 2197 3394 2470 3270 
Q 2744 3147 2920 2923 
Q 3097 2700 3197 2384 
Q 3297 2069 3297 1709 
Q 3297 856 2875 390 
Q 2453 -75 1863 -75 
Q 1275 -75 941 416 
L 941 0 
z
M 934 1684 
Q 934 1088 1097 822 
Q 1363 388 1816 388 
Q 2184 388 2453 708 
Q 2722 1028 2722 1663 
Q 2722 2313 2464 2622 
Q 2206 2931 1841 2931 
Q 1472 2931 1203 2611 
Q 934 2291 934 1684 
z
" transform="scale(0.015625)"/>
        <path id="ArialMT-66" d="M 556 0 
L 556 2881 
L 59 2881 
L 59 3319 
L 556 3319 
L 556 3672 
Q 556 4006 616 4169 
Q 697 4388 901 4523 
Q 1106 4659 1475 4659 
Q 1713 4659 2000 4603 
L 1916 4113 
Q 1741 4144 1584 4144 
Q 1328 4144 1222 4034 
Q 1116 3925 1116 3625 
L 1116 3319 
L 1763 3319 
L 1763 2881 
L 1116 2881 
L 1116 0 
L 556 0 
z
" transform="scale(0.015625)"/>
        <path id="ArialMT-70" d="M 422 -1272 
L 422 3319 
L 934 3319 
L 934 2888 
Q 1116 3141 1344 3267 
Q 1572 3394 1897 3394 
Q 2322 3394 2647 3175 
Q 2972 2956 3137 2557 
Q 3303 2159 3303 1684 
Q 3303 1175 3120 767 
Q 2938 359 2589 142 
Q 2241 -75 1856 -75 
Q 1575 -75 1351 44 
Q 1128 163 984 344 
L 984 -1272 
L 422 -1272 
z
M 931 1641 
Q 931 1000 1190 694 
Q 1450 388 1819 388 
Q 2194 388 2461 705 
Q 2728 1022 2728 1688 
Q 2728 2322 2467 2637 
Q 2206 2953 1844 2953 
Q 1484 2953 1207 2617 
Q 931 2281 931 1641 
z
" transform="scale(0.015625)"/>
        <path id="ArialMT-48" d="M 513 0 
L 513 4581 
L 1119 4581 
L 1119 2700 
L 3500 2700 
L 3500 4581 
L 4106 4581 
L 4106 0 
L 3500 0 
L 3500 2159 
L 1119 2159 
L 1119 0 
L 513 0 
z
" transform="scale(0.015625)"/>
       </defs>
       <use xlink:href="#ArialMT-64"/>
       <use xlink:href="#ArialMT-65" transform="translate(55.615234 0)"/>
       <use xlink:href="#ArialMT-73" transform="translate(111.230469 0)"/>
       <use xlink:href="#ArialMT-63" transform="translate(161.230469 0)"/>
       <use xlink:href="#ArialMT-65" transform="translate(211.230469 0)"/>
       <use xlink:href="#ArialMT-6e" transform="translate(266.845703 0)"/>
       <use xlink:href="#ArialMT-64" transform="translate(322.460938 0)"/>
       <use xlink:href="#ArialMT-69" transform="translate(378.076172 0)"/>
       <use xlink:href="#ArialMT-6e" transform="translate(400.292969 0)"/>
       <use xlink:href="#ArialMT-67" transform="translate(455.908203 0)"/>
       <use xlink:href="#ArialMT-20" transform="translate(511.523438 0)"/>
       <use xlink:href="#ArialMT-6c" transform="translate(539.306641 0)"/>
       <use xlink:href="#ArialMT-69" transform="translate(561.523438 0)"/>
       <use xlink:href="#ArialMT-6d" transform="translate(583.740234 0)"/>
       <use xlink:href="#ArialMT-62" transform="translate(667.041016 0)"/>
       <use xlink:href="#ArialMT-20" transform="translate(722.65625 0)"/>
       <use xlink:href="#ArialMT-6f" transform="translate(750.439453 0)"/>
       <use xlink:href="#ArialMT-66" transform="translate(806.054688 0)"/>
       <use xlink:href="#ArialMT-20" transform="translate(833.837891 0)"/>
       <use xlink:href="#ArialMT-6c" transform="translate(861.621094 0)"/>
       <use xlink:href="#ArialMT-6f" transform="translate(883.837891 0)"/>
       <use xlink:href="#ArialMT-6f" transform="translate(939.453125 0)"/>
       <use xlink:href="#ArialMT-70" transform="translate(995.068359 0)"/>
       <use xlink:href="#ArialMT-20" transform="translate(1050.683594 0)"/>
       <use xlink:href="#ArialMT-6f" transform="translate(1078.466797 0)"/>
       <use xlink:href="#ArialMT-66" transform="translate(1134.082031 0)"/>
       <use xlink:href="#ArialMT-20" transform="translate(1161.865234 0)"/>
       <use xlink:href="#ArialMT-48" transform="translate(1189.648438 0)"/>
       <use xlink:href="#ArialMT-65" transform="translate(1261.865234 0)"/>
       <use xlink:href="#ArialMT-6e" transform="translate(1317.480469 0)"/>
       <use xlink:href="#ArialMT-6c" transform="translate(1373.095703 0)"/>
       <use xlink:href="#ArialMT-65" transform="translate(1395.3125 0)"/>
      </g>
     </g>
    </g>
    <g id="ytick_3">
     <g id="line2d_6">
      <g>
       <use xlink:href="#med381c0b9b" x="195.43625" y="104.736622" style="stroke: #000000; stroke-width: 0.5"/>
      </g>
     </g>
     <g id="text_7">
      <!-- inner medullary collecting duct -->
      <g transform="translate(68.883437 107.957638) scale(0.09 -0.09)">
       <defs>
        <path id="ArialMT-79" d="M 397 -1278 
L 334 -750 
Q 519 -800 656 -800 
Q 844 -800 956 -737 
Q 1069 -675 1141 -563 
Q 1194 -478 1313 -144 
Q 1328 -97 1363 -6 
L 103 3319 
L 709 3319 
L 1400 1397 
Q 1534 1031 1641 628 
Q 1738 1016 1872 1384 
L 2581 3319 
L 3144 3319 
L 1881 -56 
Q 1678 -603 1566 -809 
Q 1416 -1088 1222 -1217 
Q 1028 -1347 759 -1347 
Q 597 -1347 397 -1278 
z
" transform="scale(0.015625)"/>
       </defs>
       <use xlink:href="#ArialMT-69"/>
       <use xlink:href="#ArialMT-6e" transform="translate(22.216797 0)"/>
       <use xlink:href="#ArialMT-6e" transform="translate(77.832031 0)"/>
       <use xlink:href="#ArialMT-65" transform="translate(133.447266 0)"/>
       <use xlink:href="#ArialMT-72" transform="translate(189.0625 0)"/>
       <use xlink:href="#ArialMT-20" transform="translate(222.363281 0)"/>
       <use xlink:href="#ArialMT-6d" transform="translate(250.146484 0)"/>
       <use xlink:href="#ArialMT-65" transform="translate(333.447266 0)"/>
       <use xlink:href="#ArialMT-64" transform="translate(389.0625 0)"/>
       <use xlink:href="#ArialMT-75" transform="translate(444.677734 0)"/>
       <use xlink:href="#ArialMT-6c" transform="translate(500.292969 0)"/>
       <use xlink:href="#ArialMT-6c" transform="translate(522.509766 0)"/>
       <use xlink:href="#ArialMT-61" transform="translate(544.726562 0)"/>
       <use xlink:href="#ArialMT-72" transform="translate(600.341797 0)"/>
       <use xlink:href="#ArialMT-79" transform="translate(633.642578 0)"/>
       <use xlink:href="#ArialMT-20" transform="translate(683.642578 0)"/>
       <use xlink:href="#ArialMT-63" transform="translate(711.425781 0)"/>
       <use xlink:href="#ArialMT-6f" transform="translate(761.425781 0)"/>
       <use xlink:href="#ArialMT-6c" transform="translate(817.041016 0)"/>
       <use xlink:href="#ArialMT-6c" transform="translate(839.257812 0)"/>
       <use xlink:href="#ArialMT-65" transform="translate(861.474609 0)"/>
       <use xlink:href="#ArialMT-63" transform="translate(917.089844 0)"/>
       <use xlink:href="#ArialMT-74" transform="translate(967.089844 0)"/>
       <use xlink:href="#ArialMT-69" transform="translate(994.873047 0)"/>
       <use xlink:href="#ArialMT-6e" transform="translate(1017.089844 0)"/>
       <use xlink:href="#ArialMT-67" transform="translate(1072.705078 0)"/>
       <use xlink:href="#ArialMT-20" transform="translate(1128.320312 0)"/>
       <use xlink:href="#ArialMT-64" transform="translate(1156.103516 0)"/>
       <use xlink:href="#ArialMT-75" transform="translate(1211.71875 0)"/>
       <use xlink:href="#ArialMT-63" transform="translate(1267.333984 0)"/>
       <use xlink:href="#ArialMT-74" transform="translate(1317.333984 0)"/>
      </g>
     </g>
    </g>
    <g id="ytick_4">
     <g id="line2d_7">
      <g>
       <use xlink:href="#med381c0b9b" x="195.43625" y="132.684078" style="stroke: #000000; stroke-width: 0.5"/>
      </g>
     </g>
     <g id="text_8">
      <!-- loop of Henle ascending limb thin segment -->
      <g transform="translate(20.345313 135.959938) scale(0.09 -0.09)">
       <defs>
        <path id="ArialMT-68" d="M 422 0 
L 422 4581 
L 984 4581 
L 984 2938 
Q 1378 3394 1978 3394 
Q 2347 3394 2619 3248 
Q 2891 3103 3008 2847 
Q 3125 2591 3125 2103 
L 3125 0 
L 2563 0 
L 2563 2103 
Q 2563 2525 2380 2717 
Q 2197 2909 1863 2909 
Q 1613 2909 1392 2779 
Q 1172 2650 1078 2428 
Q 984 2206 984 1816 
L 984 0 
L 422 0 
z
" transform="scale(0.015625)"/>
       </defs>
       <use xlink:href="#ArialMT-6c"/>
       <use xlink:href="#ArialMT-6f" transform="translate(22.216797 0)"/>
       <use xlink:href="#ArialMT-6f" transform="translate(77.832031 0)"/>
       <use xlink:href="#ArialMT-70" transform="translate(133.447266 0)"/>
       <use xlink:href="#ArialMT-20" transform="translate(189.0625 0)"/>
       <use xlink:href="#ArialMT-6f" transform="translate(216.845703 0)"/>
       <use xlink:href="#ArialMT-66" transform="translate(272.460938 0)"/>
       <use xlink:href="#ArialMT-20" transform="translate(300.244141 0)"/>
       <use xlink:href="#ArialMT-48" transform="translate(328.027344 0)"/>
       <use xlink:href="#ArialMT-65" transform="translate(400.244141 0)"/>
       <use xlink:href="#ArialMT-6e" transform="translate(455.859375 0)"/>
       <use xlink:href="#ArialMT-6c" transform="translate(511.474609 0)"/>
       <use xlink:href="#ArialMT-65" transform="translate(533.691406 0)"/>
       <use xlink:href="#ArialMT-20" transform="translate(589.306641 0)"/>
       <use xlink:href="#ArialMT-61" transform="translate(617.089844 0)"/>
       <use xlink:href="#ArialMT-73" transform="translate(672.705078 0)"/>
       <use xlink:href="#ArialMT-63" transform="translate(722.705078 0)"/>
       <use xlink:href="#ArialMT-65" transform="translate(772.705078 0)"/>
       <use xlink:href="#ArialMT-6e" transform="translate(828.320312 0)"/>
       <use xlink:href="#ArialMT-64" transform="translate(883.935547 0)"/>
       <use xlink:href="#ArialMT-69" transform="translate(939.550781 0)"/>
       <use xlink:href="#ArialMT-6e" transform="translate(961.767578 0)"/>
       <use xlink:href="#ArialMT-67" transform="translate(1017.382812 0)"/>
       <use xlink:href="#ArialMT-20" transform="translate(1072.998047 0)"/>
       <use xlink:href="#ArialMT-6c" transform="translate(1100.78125 0)"/>
       <use xlink:href="#ArialMT-69" transform="translate(1122.998047 0)"/>
       <use xlink:href="#ArialMT-6d" transform="translate(1145.214844 0)"/>
       <use xlink:href="#ArialMT-62" transform="translate(1228.515625 0)"/>
       <use xlink:href="#ArialMT-20" transform="translate(1284.130859 0)"/>
       <use xlink:href="#ArialMT-74" transform="translate(1311.914062 0)"/>
       <use xlink:href="#ArialMT-68" transform="translate(1339.697266 0)"/>
       <use xlink:href="#ArialMT-69" transform="translate(1395.3125 0)"/>
       <use xlink:href="#ArialMT-6e" transform="translate(1417.529297 0)"/>
       <use xlink:href="#ArialMT-20" transform="translate(1473.144531 0)"/>
       <use xlink:href="#ArialMT-73" transform="translate(1500.927734 0)"/>
       <use xlink:href="#ArialMT-65" transform="translate(1550.927734 0)"/>
       <use xlink:href="#ArialMT-67" transform="translate(1606.542969 0)"/>
       <use xlink:href="#ArialMT-6d" transform="translate(1662.158203 0)"/>
       <use xlink:href="#ArialMT-65" transform="translate(1745.458984 0)"/>
       <use xlink:href="#ArialMT-6e" transform="translate(1801.074219 0)"/>
       <use xlink:href="#ArialMT-74" transform="translate(1856.689453 0)"/>
      </g>
     </g>
    </g>
    <g id="ytick_5">
     <g id="line2d_8">
      <g>
       <use xlink:href="#med381c0b9b" x="195.43625" y="160.631535" style="stroke: #000000; stroke-width: 0.5"/>
      </g>
     </g>
     <g id="text_9">
      <!-- nephron -->
      <g transform="translate(156.910469 163.85255) scale(0.09 -0.09)">
       <use xlink:href="#ArialMT-6e"/>
       <use xlink:href="#ArialMT-65" transform="translate(55.615234 0)"/>
       <use xlink:href="#ArialMT-70" transform="translate(111.230469 0)"/>
       <use xlink:href="#ArialMT-68" transform="translate(166.845703 0)"/>
       <use xlink:href="#ArialMT-72" transform="translate(222.460938 0)"/>
       <use xlink:href="#ArialMT-6f" transform="translate(255.761719 0)"/>
       <use xlink:href="#ArialMT-6e" transform="translate(311.376953 0)"/>
      </g>
     </g>
    </g>
    <g id="ytick_6">
     <g id="line2d_9">
      <g>
       <use xlink:href="#med381c0b9b" x="195.43625" y="188.578991" style="stroke: #000000; stroke-width: 0.5"/>
      </g>
     </g>
     <g id="text_10">
      <!-- outer medullary collecting duct -->
      <g transform="translate(68.382812 191.800006) scale(0.09 -0.09)">
       <use xlink:href="#ArialMT-6f"/>
       <use xlink:href="#ArialMT-75" transform="translate(55.615234 0)"/>
       <use xlink:href="#ArialMT-74" transform="translate(111.230469 0)"/>
       <use xlink:href="#ArialMT-65" transform="translate(139.013672 0)"/>
       <use xlink:href="#ArialMT-72" transform="translate(194.628906 0)"/>
       <use xlink:href="#ArialMT-20" transform="translate(227.929688 0)"/>
       <use xlink:href="#ArialMT-6d" transform="translate(255.712891 0)"/>
       <use xlink:href="#ArialMT-65" transform="translate(339.013672 0)"/>
       <use xlink:href="#ArialMT-64" transform="translate(394.628906 0)"/>
       <use xlink:href="#ArialMT-75" transform="translate(450.244141 0)"/>
       <use xlink:href="#ArialMT-6c" transform="translate(505.859375 0)"/>
       <use xlink:href="#ArialMT-6c" transform="translate(528.076172 0)"/>
       <use xlink:href="#ArialMT-61" transform="translate(550.292969 0)"/>
       <use xlink:href="#ArialMT-72" transform="translate(605.908203 0)"/>
       <use xlink:href="#ArialMT-79" transform="translate(639.208984 0)"/>
       <use xlink:href="#ArialMT-20" transform="translate(689.208984 0)"/>
       <use xlink:href="#ArialMT-63" transform="translate(716.992188 0)"/>
       <use xlink:href="#ArialMT-6f" transform="translate(766.992188 0)"/>
       <use xlink:href="#ArialMT-6c" transform="translate(822.607422 0)"/>
       <use xlink:href="#ArialMT-6c" transform="translate(844.824219 0)"/>
       <use xlink:href="#ArialMT-65" transform="translate(867.041016 0)"/>
       <use xlink:href="#ArialMT-63" transform="translate(922.65625 0)"/>
       <use xlink:href="#ArialMT-74" transform="translate(972.65625 0)"/>
       <use xlink:href="#ArialMT-69" transform="translate(1000.439453 0)"/>
       <use xlink:href="#ArialMT-6e" transform="translate(1022.65625 0)"/>
       <use xlink:href="#ArialMT-67" transform="translate(1078.271484 0)"/>
       <use xlink:href="#ArialMT-20" transform="translate(1133.886719 0)"/>
       <use xlink:href="#ArialMT-64" transform="translate(1161.669922 0)"/>
       <use xlink:href="#ArialMT-75" transform="translate(1217.285156 0)"/>
       <use xlink:href="#ArialMT-63" transform="translate(1272.900391 0)"/>
       <use xlink:href="#ArialMT-74" transform="translate(1322.900391 0)"/>
      </g>
     </g>
    </g>
    <g id="ytick_7">
     <g id="line2d_10">
      <g>
       <use xlink:href="#med381c0b9b" x="195.43625" y="216.526447" style="stroke: #000000; stroke-width: 0.5"/>
      </g>
     </g>
     <g id="text_11">
      <!-- renal corpuscle -->
      <g transform="translate(128.909219 219.747463) scale(0.09 -0.09)">
       <use xlink:href="#ArialMT-72"/>
       <use xlink:href="#ArialMT-65" transform="translate(33.300781 0)"/>
       <use xlink:href="#ArialMT-6e" transform="translate(88.916016 0)"/>
       <use xlink:href="#ArialMT-61" transform="translate(144.53125 0)"/>
       <use xlink:href="#ArialMT-6c" transform="translate(200.146484 0)"/>
       <use xlink:href="#ArialMT-20" transform="translate(222.363281 0)"/>
       <use xlink:href="#ArialMT-63" transform="translate(250.146484 0)"/>
       <use xlink:href="#ArialMT-6f" transform="translate(300.146484 0)"/>
       <use xlink:href="#ArialMT-72" transform="translate(355.761719 0)"/>
       <use xlink:href="#ArialMT-70" transform="translate(389.0625 0)"/>
       <use xlink:href="#ArialMT-75" transform="translate(444.677734 0)"/>
       <use xlink:href="#ArialMT-73" transform="translate(500.292969 0)"/>
       <use xlink:href="#ArialMT-63" transform="translate(550.292969 0)"/>
       <use xlink:href="#ArialMT-6c" transform="translate(600.292969 0)"/>
       <use xlink:href="#ArialMT-65" transform="translate(622.509766 0)"/>
      </g>
     </g>
    </g>
    <g id="ytick_8">
     <g id="line2d_11">
      <g>
       <use xlink:href="#med381c0b9b" x="195.43625" y="244.473903" style="stroke: #000000; stroke-width: 0.5"/>
      </g>
     </g>
     <g id="text_12">
      <!-- thick ascending limb of loop of Henle -->
      <g transform="translate(43.361406 247.749763) scale(0.09 -0.09)">
       <defs>
        <path id="ArialMT-6b" d="M 425 0 
L 425 4581 
L 988 4581 
L 988 1969 
L 2319 3319 
L 3047 3319 
L 1778 2088 
L 3175 0 
L 2481 0 
L 1384 1697 
L 988 1316 
L 988 0 
L 425 0 
z
" transform="scale(0.015625)"/>
       </defs>
       <use xlink:href="#ArialMT-74"/>
       <use xlink:href="#ArialMT-68" transform="translate(27.783203 0)"/>
       <use xlink:href="#ArialMT-69" transform="translate(83.398438 0)"/>
       <use xlink:href="#ArialMT-63" transform="translate(105.615234 0)"/>
       <use xlink:href="#ArialMT-6b" transform="translate(155.615234 0)"/>
       <use xlink:href="#ArialMT-20" transform="translate(205.615234 0)"/>
       <use xlink:href="#ArialMT-61" transform="translate(233.398438 0)"/>
       <use xlink:href="#ArialMT-73" transform="translate(289.013672 0)"/>
       <use xlink:href="#ArialMT-63" transform="translate(339.013672 0)"/>
       <use xlink:href="#ArialMT-65" transform="translate(389.013672 0)"/>
       <use xlink:href="#ArialMT-6e" transform="translate(444.628906 0)"/>
       <use xlink:href="#ArialMT-64" transform="translate(500.244141 0)"/>
       <use xlink:href="#ArialMT-69" transform="translate(555.859375 0)"/>
       <use xlink:href="#ArialMT-6e" transform="translate(578.076172 0)"/>
       <use xlink:href="#ArialMT-67" transform="translate(633.691406 0)"/>
       <use xlink:href="#ArialMT-20" transform="translate(689.306641 0)"/>
       <use xlink:href="#ArialMT-6c" transform="translate(717.089844 0)"/>
       <use xlink:href="#ArialMT-69" transform="translate(739.306641 0)"/>
       <use xlink:href="#ArialMT-6d" transform="translate(761.523438 0)"/>
       <use xlink:href="#ArialMT-62" transform="translate(844.824219 0)"/>
       <use xlink:href="#ArialMT-20" transform="translate(900.439453 0)"/>
       <use xlink:href="#ArialMT-6f" transform="translate(928.222656 0)"/>
       <use xlink:href="#ArialMT-66" transform="translate(983.837891 0)"/>
       <use xlink:href="#ArialMT-20" transform="translate(1011.621094 0)"/>
       <use xlink:href="#ArialMT-6c" transform="translate(1039.404297 0)"/>
       <use xlink:href="#ArialMT-6f" transform="translate(1061.621094 0)"/>
       <use xlink:href="#ArialMT-6f" transform="translate(1117.236328 0)"/>
       <use xlink:href="#ArialMT-70" transform="translate(1172.851562 0)"/>
       <use xlink:href="#ArialMT-20" transform="translate(1228.466797 0)"/>
       <use xlink:href="#ArialMT-6f" transform="translate(1256.25 0)"/>
       <use xlink:href="#ArialMT-66" transform="translate(1311.865234 0)"/>
       <use xlink:href="#ArialMT-20" transform="translate(1339.648438 0)"/>
       <use xlink:href="#ArialMT-48" transform="translate(1367.431641 0)"/>
       <use xlink:href="#ArialMT-65" transform="translate(1439.648438 0)"/>
       <use xlink:href="#ArialMT-6e" transform="translate(1495.263672 0)"/>
       <use xlink:href="#ArialMT-6c" transform="translate(1550.878906 0)"/>
       <use xlink:href="#ArialMT-65" transform="translate(1573.095703 0)"/>
      </g>
     </g>
    </g>
    <g id="ytick_9">
     <g id="line2d_12">
      <g>
       <use xlink:href="#med381c0b9b" x="195.43625" y="272.421359" style="stroke: #000000; stroke-width: 0.5"/>
      </g>
     </g>
     <g id="text_13">
      <!-- crypt of Lieberkuhn of large intestine -->
      <g transform="translate(44.861875 275.697219) scale(0.09 -0.09)">
       <defs>
        <path id="ArialMT-4c" d="M 469 0 
L 469 4581 
L 1075 4581 
L 1075 541 
L 3331 541 
L 3331 0 
L 469 0 
z
" transform="scale(0.015625)"/>
       </defs>
       <use xlink:href="#ArialMT-63"/>
       <use xlink:href="#ArialMT-72" transform="translate(50 0)"/>
       <use xlink:href="#ArialMT-79" transform="translate(83.300781 0)"/>
       <use xlink:href="#ArialMT-70" transform="translate(133.300781 0)"/>
       <use xlink:href="#ArialMT-74" transform="translate(188.916016 0)"/>
       <use xlink:href="#ArialMT-20" transform="translate(216.699219 0)"/>
       <use xlink:href="#ArialMT-6f" transform="translate(244.482422 0)"/>
       <use xlink:href="#ArialMT-66" transform="translate(300.097656 0)"/>
       <use xlink:href="#ArialMT-20" transform="translate(327.880859 0)"/>
       <use xlink:href="#ArialMT-4c" transform="translate(355.664062 0)"/>
       <use xlink:href="#ArialMT-69" transform="translate(411.279297 0)"/>
       <use xlink:href="#ArialMT-65" transform="translate(433.496094 0)"/>
       <use xlink:href="#ArialMT-62" transform="translate(489.111328 0)"/>
       <use xlink:href="#ArialMT-65" transform="translate(544.726562 0)"/>
       <use xlink:href="#ArialMT-72" transform="translate(600.341797 0)"/>
       <use xlink:href="#ArialMT-6b" transform="translate(633.642578 0)"/>
       <use xlink:href="#ArialMT-75" transform="translate(683.642578 0)"/>
       <use xlink:href="#ArialMT-68" transform="translate(739.257812 0)"/>
       <use xlink:href="#ArialMT-6e" transform="translate(794.873047 0)"/>
       <use xlink:href="#ArialMT-20" transform="translate(850.488281 0)"/>
       <use xlink:href="#ArialMT-6f" transform="translate(878.271484 0)"/>
       <use xlink:href="#ArialMT-66" transform="translate(933.886719 0)"/>
       <use xlink:href="#ArialMT-20" transform="translate(961.669922 0)"/>
       <use xlink:href="#ArialMT-6c" transform="translate(989.453125 0)"/>
       <use xlink:href="#ArialMT-61" transform="translate(1011.669922 0)"/>
       <use xlink:href="#ArialMT-72" transform="translate(1067.285156 0)"/>
       <use xlink:href="#ArialMT-67" transform="translate(1100.585938 0)"/>
       <use xlink:href="#ArialMT-65" transform="translate(1156.201172 0)"/>
       <use xlink:href="#ArialMT-20" transform="translate(1211.816406 0)"/>
       <use xlink:href="#ArialMT-69" transform="translate(1239.599609 0)"/>
       <use xlink:href="#ArialMT-6e" transform="translate(1261.816406 0)"/>
       <use xlink:href="#ArialMT-74" transform="translate(1317.431641 0)"/>
       <use xlink:href="#ArialMT-65" transform="translate(1345.214844 0)"/>
       <use xlink:href="#ArialMT-73" transform="translate(1400.830078 0)"/>
       <use xlink:href="#ArialMT-74" transform="translate(1450.830078 0)"/>
       <use xlink:href="#ArialMT-69" transform="translate(1478.613281 0)"/>
       <use xlink:href="#ArialMT-6e" transform="translate(1500.830078 0)"/>
       <use xlink:href="#ArialMT-65" transform="translate(1556.445312 0)"/>
      </g>
     </g>
    </g>
    <g id="ytick_10">
     <g id="line2d_13">
      <g>
       <use xlink:href="#med381c0b9b" x="195.43625" y="300.368816" style="stroke: #000000; stroke-width: 0.5"/>
      </g>
     </g>
     <g id="text_14">
      <!-- liver lobule -->
      <g transform="translate(146.91625 303.589831) scale(0.09 -0.09)">
       <defs>
        <path id="ArialMT-76" d="M 1344 0 
L 81 3319 
L 675 3319 
L 1388 1331 
Q 1503 1009 1600 663 
Q 1675 925 1809 1294 
L 2547 3319 
L 3125 3319 
L 1869 0 
L 1344 0 
z
" transform="scale(0.015625)"/>
       </defs>
       <use xlink:href="#ArialMT-6c"/>
       <use xlink:href="#ArialMT-69" transform="translate(22.216797 0)"/>
       <use xlink:href="#ArialMT-76" transform="translate(44.433594 0)"/>
       <use xlink:href="#ArialMT-65" transform="translate(94.433594 0)"/>
       <use xlink:href="#ArialMT-72" transform="translate(150.048828 0)"/>
       <use xlink:href="#ArialMT-20" transform="translate(183.349609 0)"/>
       <use xlink:href="#ArialMT-6c" transform="translate(211.132812 0)"/>
       <use xlink:href="#ArialMT-6f" transform="translate(233.349609 0)"/>
       <use xlink:href="#ArialMT-62" transform="translate(288.964844 0)"/>
       <use xlink:href="#ArialMT-75" transform="translate(344.580078 0)"/>
       <use xlink:href="#ArialMT-6c" transform="translate(400.195312 0)"/>
       <use xlink:href="#ArialMT-65" transform="translate(422.412109 0)"/>
      </g>
     </g>
    </g>
    <g id="ytick_11">
     <g id="line2d_14">
      <g>
       <use xlink:href="#med381c0b9b" x="195.43625" y="328.316272" style="stroke: #000000; stroke-width: 0.5"/>
      </g>
     </g>
     <g id="text_15">
      <!-- alveolus of lung -->
      <g transform="translate(127.3975 331.592131) scale(0.09 -0.09)">
       <use xlink:href="#ArialMT-61"/>
       <use xlink:href="#ArialMT-6c" transform="translate(55.615234 0)"/>
       <use xlink:href="#ArialMT-76" transform="translate(77.832031 0)"/>
       <use xlink:href="#ArialMT-65" transform="translate(127.832031 0)"/>
       <use xlink:href="#ArialMT-6f" transform="translate(183.447266 0)"/>
       <use xlink:href="#ArialMT-6c" transform="translate(239.0625 0)"/>
       <use xlink:href="#ArialMT-75" transform="translate(261.279297 0)"/>
       <use xlink:href="#ArialMT-73" transform="translate(316.894531 0)"/>
       <use xlink:href="#ArialMT-20" transform="translate(366.894531 0)"/>
       <use xlink:href="#ArialMT-6f" transform="translate(394.677734 0)"/>
       <use xlink:href="#ArialMT-66" transform="translate(450.292969 0)"/>
       <use xlink:href="#ArialMT-20" transform="translate(478.076172 0)"/>
       <use xlink:href="#ArialMT-6c" transform="translate(505.859375 0)"/>
       <use xlink:href="#ArialMT-75" transform="translate(528.076172 0)"/>
       <use xlink:href="#ArialMT-6e" transform="translate(583.691406 0)"/>
       <use xlink:href="#ArialMT-67" transform="translate(639.306641 0)"/>
      </g>
     </g>
    </g>
    <g id="ytick_12">
     <g id="line2d_15">
      <g>
       <use xlink:href="#med381c0b9b" x="195.43625" y="356.263728" style="stroke: #000000; stroke-width: 0.5"/>
      </g>
     </g>
     <g id="text_16">
      <!-- bronchus submucosal gland -->
      <g transform="translate(77.875 359.484744) scale(0.09 -0.09)">
       <use xlink:href="#ArialMT-62"/>
       <use xlink:href="#ArialMT-72" transform="translate(55.615234 0)"/>
       <use xlink:href="#ArialMT-6f" transform="translate(88.916016 0)"/>
       <use xlink:href="#ArialMT-6e" transform="translate(144.53125 0)"/>
       <use xlink:href="#ArialMT-63" transform="translate(200.146484 0)"/>
       <use xlink:href="#ArialMT-68" transform="translate(250.146484 0)"/>
       <use xlink:href="#ArialMT-75" transform="translate(305.761719 0)"/>
       <use xlink:href="#ArialMT-73" transform="translate(361.376953 0)"/>
       <use xlink:href="#ArialMT-20" transform="translate(411.376953 0)"/>
       <use xlink:href="#ArialMT-73" transform="translate(439.160156 0)"/>
       <use xlink:href="#ArialMT-75" transform="translate(489.160156 0)"/>
       <use xlink:href="#ArialMT-62" transform="translate(544.775391 0)"/>
       <use xlink:href="#ArialMT-6d" transform="translate(600.390625 0)"/>
       <use xlink:href="#ArialMT-75" transform="translate(683.691406 0)"/>
       <use xlink:href="#ArialMT-63" transform="translate(739.306641 0)"/>
       <use xlink:href="#ArialMT-6f" transform="translate(789.306641 0)"/>
       <use xlink:href="#ArialMT-73" transform="translate(844.921875 0)"/>
       <use xlink:href="#ArialMT-61" transform="translate(894.921875 0)"/>
       <use xlink:href="#ArialMT-6c" transform="translate(950.537109 0)"/>
       <use xlink:href="#ArialMT-20" transform="translate(972.753906 0)"/>
       <use xlink:href="#ArialMT-67" transform="translate(1000.537109 0)"/>
       <use xlink:href="#ArialMT-6c" transform="translate(1056.152344 0)"/>
       <use xlink:href="#ArialMT-61" transform="translate(1078.369141 0)"/>
       <use xlink:href="#ArialMT-6e" transform="translate(1133.984375 0)"/>
       <use xlink:href="#ArialMT-64" transform="translate(1189.599609 0)"/>
      </g>
     </g>
    </g>
    <g id="ytick_13">
     <g id="line2d_16">
      <g>
       <use xlink:href="#med381c0b9b" x="195.43625" y="384.211184" style="stroke: #000000; stroke-width: 0.5"/>
      </g>
     </g>
     <g id="text_17">
      <!-- intercalated duct of pancreas -->
      <g transform="translate(74.373438 387.487044) scale(0.09 -0.09)">
       <use xlink:href="#ArialMT-69"/>
       <use xlink:href="#ArialMT-6e" transform="translate(22.216797 0)"/>
       <use xlink:href="#ArialMT-74" transform="translate(77.832031 0)"/>
       <use xlink:href="#ArialMT-65" transform="translate(105.615234 0)"/>
       <use xlink:href="#ArialMT-72" transform="translate(161.230469 0)"/>
       <use xlink:href="#ArialMT-63" transform="translate(194.53125 0)"/>
       <use xlink:href="#ArialMT-61" transform="translate(244.53125 0)"/>
       <use xlink:href="#ArialMT-6c" transform="translate(300.146484 0)"/>
       <use xlink:href="#ArialMT-61" transform="translate(322.363281 0)"/>
       <use xlink:href="#ArialMT-74" transform="translate(377.978516 0)"/>
       <use xlink:href="#ArialMT-65" transform="translate(405.761719 0)"/>
       <use xlink:href="#ArialMT-64" transform="translate(461.376953 0)"/>
       <use xlink:href="#ArialMT-20" transform="translate(516.992188 0)"/>
       <use xlink:href="#ArialMT-64" transform="translate(544.775391 0)"/>
       <use xlink:href="#ArialMT-75" transform="translate(600.390625 0)"/>
       <use xlink:href="#ArialMT-63" transform="translate(656.005859 0)"/>
       <use xlink:href="#ArialMT-74" transform="translate(706.005859 0)"/>
       <use xlink:href="#ArialMT-20" transform="translate(733.789062 0)"/>
       <use xlink:href="#ArialMT-6f" transform="translate(761.572266 0)"/>
       <use xlink:href="#ArialMT-66" transform="translate(817.1875 0)"/>
       <use xlink:href="#ArialMT-20" transform="translate(844.970703 0)"/>
       <use xlink:href="#ArialMT-70" transform="translate(872.753906 0)"/>
       <use xlink:href="#ArialMT-61" transform="translate(928.369141 0)"/>
       <use xlink:href="#ArialMT-6e" transform="translate(983.984375 0)"/>
       <use xlink:href="#ArialMT-63" transform="translate(1039.599609 0)"/>
       <use xlink:href="#ArialMT-72" transform="translate(1089.599609 0)"/>
       <use xlink:href="#ArialMT-65" transform="translate(1122.900391 0)"/>
       <use xlink:href="#ArialMT-61" transform="translate(1178.515625 0)"/>
       <use xlink:href="#ArialMT-73" transform="translate(1234.130859 0)"/>
      </g>
     </g>
    </g>
    <g id="ytick_14">
     <g id="line2d_17">
      <g>
       <use xlink:href="#med381c0b9b" x="195.43625" y="412.158641" style="stroke: #000000; stroke-width: 0.5"/>
      </g>
     </g>
     <g id="text_18">
      <!-- islet of Langerhans -->
      <g transform="translate(113.890469 415.4345) scale(0.09 -0.09)">
       <use xlink:href="#ArialMT-69"/>
       <use xlink:href="#ArialMT-73" transform="translate(22.216797 0)"/>
       <use xlink:href="#ArialMT-6c" transform="translate(72.216797 0)"/>
       <use xlink:href="#ArialMT-65" transform="translate(94.433594 0)"/>
       <use xlink:href="#ArialMT-74" transform="translate(150.048828 0)"/>
       <use xlink:href="#ArialMT-20" transform="translate(177.832031 0)"/>
       <use xlink:href="#ArialMT-6f" transform="translate(205.615234 0)"/>
       <use xlink:href="#ArialMT-66" transform="translate(261.230469 0)"/>
       <use xlink:href="#ArialMT-20" transform="translate(289.013672 0)"/>
       <use xlink:href="#ArialMT-4c" transform="translate(316.796875 0)"/>
       <use xlink:href="#ArialMT-61" transform="translate(372.412109 0)"/>
       <use xlink:href="#ArialMT-6e" transform="translate(428.027344 0)"/>
       <use xlink:href="#ArialMT-67" transform="translate(483.642578 0)"/>
       <use xlink:href="#ArialMT-65" transform="translate(539.257812 0)"/>
       <use xlink:href="#ArialMT-72" transform="translate(594.873047 0)"/>
       <use xlink:href="#ArialMT-68" transform="translate(628.173828 0)"/>
       <use xlink:href="#ArialMT-61" transform="translate(683.789062 0)"/>
       <use xlink:href="#ArialMT-6e" transform="translate(739.404297 0)"/>
       <use xlink:href="#ArialMT-73" transform="translate(795.019531 0)"/>
      </g>
     </g>
    </g>
    <g id="ytick_15">
     <g id="line2d_18">
      <g>
       <use xlink:href="#med381c0b9b" x="195.43625" y="440.106097" style="stroke: #000000; stroke-width: 0.5"/>
      </g>
     </g>
     <g id="text_19">
      <!-- pancreatic acinus -->
      <g transform="translate(119.900781 443.327112) scale(0.09 -0.09)">
       <use xlink:href="#ArialMT-70"/>
       <use xlink:href="#ArialMT-61" transform="translate(55.615234 0)"/>
       <use xlink:href="#ArialMT-6e" transform="translate(111.230469 0)"/>
       <use xlink:href="#ArialMT-63" transform="translate(166.845703 0)"/>
       <use xlink:href="#ArialMT-72" transform="translate(216.845703 0)"/>
       <use xlink:href="#ArialMT-65" transform="translate(250.146484 0)"/>
       <use xlink:href="#ArialMT-61" transform="translate(305.761719 0)"/>
       <use xlink:href="#ArialMT-74" transform="translate(361.376953 0)"/>
       <use xlink:href="#ArialMT-69" transform="translate(389.160156 0)"/>
       <use xlink:href="#ArialMT-63" transform="translate(411.376953 0)"/>
       <use xlink:href="#ArialMT-20" transform="translate(461.376953 0)"/>
       <use xlink:href="#ArialMT-61" transform="translate(489.160156 0)"/>
       <use xlink:href="#ArialMT-63" transform="translate(544.775391 0)"/>
       <use xlink:href="#ArialMT-69" transform="translate(594.775391 0)"/>
       <use xlink:href="#ArialMT-6e" transform="translate(616.992188 0)"/>
       <use xlink:href="#ArialMT-75" transform="translate(672.607422 0)"/>
       <use xlink:href="#ArialMT-73" transform="translate(728.222656 0)"/>
      </g>
     </g>
    </g>
    <g id="ytick_16">
     <g id="line2d_19">
      <g>
       <use xlink:href="#med381c0b9b" x="195.43625" y="468.053553" style="stroke: #000000; stroke-width: 0.5"/>
      </g>
     </g>
     <g id="text_20">
      <!-- prostate glandular acinus -->
      <g transform="translate(89.379531 471.274569) scale(0.09 -0.09)">
       <use xlink:href="#ArialMT-70"/>
       <use xlink:href="#ArialMT-72" transform="translate(55.615234 0)"/>
       <use xlink:href="#ArialMT-6f" transform="translate(88.916016 0)"/>
       <use xlink:href="#ArialMT-73" transform="translate(144.53125 0)"/>
       <use xlink:href="#ArialMT-74" transform="translate(194.53125 0)"/>
       <use xlink:href="#ArialMT-61" transform="translate(222.314453 0)"/>
       <use xlink:href="#ArialMT-74" transform="translate(277.929688 0)"/>
       <use xlink:href="#ArialMT-65" transform="translate(305.712891 0)"/>
       <use xlink:href="#ArialMT-20" transform="translate(361.328125 0)"/>
       <use xlink:href="#ArialMT-67" transform="translate(389.111328 0)"/>
       <use xlink:href="#ArialMT-6c" transform="translate(444.726562 0)"/>
       <use xlink:href="#ArialMT-61" transform="translate(466.943359 0)"/>
       <use xlink:href="#ArialMT-6e" transform="translate(522.558594 0)"/>
       <use xlink:href="#ArialMT-64" transform="translate(578.173828 0)"/>
       <use xlink:href="#ArialMT-75" transform="translate(633.789062 0)"/>
       <use xlink:href="#ArialMT-6c" transform="translate(689.404297 0)"/>
       <use xlink:href="#ArialMT-61" transform="translate(711.621094 0)"/>
       <use xlink:href="#ArialMT-72" transform="translate(767.236328 0)"/>
       <use xlink:href="#ArialMT-20" transform="translate(800.537109 0)"/>
       <use xlink:href="#ArialMT-61" transform="translate(828.320312 0)"/>
       <use xlink:href="#ArialMT-63" transform="translate(883.935547 0)"/>
       <use xlink:href="#ArialMT-69" transform="translate(933.935547 0)"/>
       <use xlink:href="#ArialMT-6e" transform="translate(956.152344 0)"/>
       <use xlink:href="#ArialMT-75" transform="translate(1011.767578 0)"/>
       <use xlink:href="#ArialMT-73" transform="translate(1067.382812 0)"/>
      </g>
     </g>
    </g>
    <g id="ytick_17">
     <g id="line2d_20">
      <g>
       <use xlink:href="#med381c0b9b" x="195.43625" y="496.001009" style="stroke: #000000; stroke-width: 0.5"/>
      </g>
     </g>
     <g id="text_21">
      <!-- epidermal ridge of digit -->
      <g transform="translate(98.892813 499.276869) scale(0.09 -0.09)">
       <use xlink:href="#ArialMT-65"/>
       <use xlink:href="#ArialMT-70" transform="translate(55.615234 0)"/>
       <use xlink:href="#ArialMT-69" transform="translate(111.230469 0)"/>
       <use xlink:href="#ArialMT-64" transform="translate(133.447266 0)"/>
       <use xlink:href="#ArialMT-65" transform="translate(189.0625 0)"/>
       <use xlink:href="#ArialMT-72" transform="translate(244.677734 0)"/>
       <use xlink:href="#ArialMT-6d" transform="translate(277.978516 0)"/>
       <use xlink:href="#ArialMT-61" transform="translate(361.279297 0)"/>
       <use xlink:href="#ArialMT-6c" transform="translate(416.894531 0)"/>
       <use xlink:href="#ArialMT-20" transform="translate(439.111328 0)"/>
       <use xlink:href="#ArialMT-72" transform="translate(466.894531 0)"/>
       <use xlink:href="#ArialMT-69" transform="translate(500.195312 0)"/>
       <use xlink:href="#ArialMT-64" transform="translate(522.412109 0)"/>
       <use xlink:href="#ArialMT-67" transform="translate(578.027344 0)"/>
       <use xlink:href="#ArialMT-65" transform="translate(633.642578 0)"/>
       <use xlink:href="#ArialMT-20" transform="translate(689.257812 0)"/>
       <use xlink:href="#ArialMT-6f" transform="translate(717.041016 0)"/>
       <use xlink:href="#ArialMT-66" transform="translate(772.65625 0)"/>
       <use xlink:href="#ArialMT-20" transform="translate(800.439453 0)"/>
       <use xlink:href="#ArialMT-64" transform="translate(828.222656 0)"/>
       <use xlink:href="#ArialMT-69" transform="translate(883.837891 0)"/>
       <use xlink:href="#ArialMT-67" transform="translate(906.054688 0)"/>
       <use xlink:href="#ArialMT-69" transform="translate(961.669922 0)"/>
       <use xlink:href="#ArialMT-74" transform="translate(983.886719 0)"/>
      </g>
     </g>
    </g>
    <g id="ytick_18">
     <g id="line2d_21">
      <g>
       <use xlink:href="#med381c0b9b" x="195.43625" y="523.948465" style="stroke: #000000; stroke-width: 0.5"/>
      </g>
     </g>
     <g id="text_22">
      <!-- papillary layer of dermis -->
      <g transform="translate(94.906094 527.224325) scale(0.09 -0.09)">
       <use xlink:href="#ArialMT-70"/>
       <use xlink:href="#ArialMT-61" transform="translate(55.615234 0)"/>
       <use xlink:href="#ArialMT-70" transform="translate(111.230469 0)"/>
       <use xlink:href="#ArialMT-69" transform="translate(166.845703 0)"/>
       <use xlink:href="#ArialMT-6c" transform="translate(189.0625 0)"/>
       <use xlink:href="#ArialMT-6c" transform="translate(211.279297 0)"/>
       <use xlink:href="#ArialMT-61" transform="translate(233.496094 0)"/>
       <use xlink:href="#ArialMT-72" transform="translate(289.111328 0)"/>
       <use xlink:href="#ArialMT-79" transform="translate(322.412109 0)"/>
       <use xlink:href="#ArialMT-20" transform="translate(372.412109 0)"/>
       <use xlink:href="#ArialMT-6c" transform="translate(400.195312 0)"/>
       <use xlink:href="#ArialMT-61" transform="translate(422.412109 0)"/>
       <use xlink:href="#ArialMT-79" transform="translate(478.027344 0)"/>
       <use xlink:href="#ArialMT-65" transform="translate(528.027344 0)"/>
       <use xlink:href="#ArialMT-72" transform="translate(583.642578 0)"/>
       <use xlink:href="#ArialMT-20" transform="translate(616.943359 0)"/>
       <use xlink:href="#ArialMT-6f" transform="translate(644.726562 0)"/>
       <use xlink:href="#ArialMT-66" transform="translate(700.341797 0)"/>
       <use xlink:href="#ArialMT-20" transform="translate(728.125 0)"/>
       <use xlink:href="#ArialMT-64" transform="translate(755.908203 0)"/>
       <use xlink:href="#ArialMT-65" transform="translate(811.523438 0)"/>
       <use xlink:href="#ArialMT-72" transform="translate(867.138672 0)"/>
       <use xlink:href="#ArialMT-6d" transform="translate(900.439453 0)"/>
       <use xlink:href="#ArialMT-69" transform="translate(983.740234 0)"/>
       <use xlink:href="#ArialMT-73" transform="translate(1005.957031 0)"/>
      </g>
     </g>
    </g>
    <g id="ytick_19">
     <g id="line2d_22">
      <g>
       <use xlink:href="#med381c0b9b" x="195.43625" y="551.895922" style="stroke: #000000; stroke-width: 0.5"/>
      </g>
     </g>
     <g id="text_23">
      <!-- intestinal villus -->
      <g transform="translate(131.912969 555.116937) scale(0.09 -0.09)">
       <use xlink:href="#ArialMT-69"/>
       <use xlink:href="#ArialMT-6e" transform="translate(22.216797 0)"/>
       <use xlink:href="#ArialMT-74" transform="translate(77.832031 0)"/>
       <use xlink:href="#ArialMT-65" transform="translate(105.615234 0)"/>
       <use xlink:href="#ArialMT-73" transform="translate(161.230469 0)"/>
       <use xlink:href="#ArialMT-74" transform="translate(211.230469 0)"/>
       <use xlink:href="#ArialMT-69" transform="translate(239.013672 0)"/>
       <use xlink:href="#ArialMT-6e" transform="translate(261.230469 0)"/>
       <use xlink:href="#ArialMT-61" transform="translate(316.845703 0)"/>
       <use xlink:href="#ArialMT-6c" transform="translate(372.460938 0)"/>
       <use xlink:href="#ArialMT-20" transform="translate(394.677734 0)"/>
       <use xlink:href="#ArialMT-76" transform="translate(422.460938 0)"/>
       <use xlink:href="#ArialMT-69" transform="translate(472.460938 0)"/>
       <use xlink:href="#ArialMT-6c" transform="translate(494.677734 0)"/>
       <use xlink:href="#ArialMT-6c" transform="translate(516.894531 0)"/>
       <use xlink:href="#ArialMT-75" transform="translate(539.111328 0)"/>
       <use xlink:href="#ArialMT-73" transform="translate(594.726562 0)"/>
      </g>
     </g>
    </g>
    <g id="ytick_20">
     <g id="line2d_23">
      <g>
       <use xlink:href="#med381c0b9b" x="195.43625" y="579.843378" style="stroke: #000000; stroke-width: 0.5"/>
      </g>
     </g>
     <g id="text_24">
      <!-- red pulp of spleen -->
      <g transform="translate(118.390469 583.119237) scale(0.09 -0.09)">
       <use xlink:href="#ArialMT-72"/>
       <use xlink:href="#ArialMT-65" transform="translate(33.300781 0)"/>
       <use xlink:href="#ArialMT-64" transform="translate(88.916016 0)"/>
       <use xlink:href="#ArialMT-20" transform="translate(144.53125 0)"/>
       <use xlink:href="#ArialMT-70" transform="translate(172.314453 0)"/>
       <use xlink:href="#ArialMT-75" transform="translate(227.929688 0)"/>
       <use xlink:href="#ArialMT-6c" transform="translate(283.544922 0)"/>
       <use xlink:href="#ArialMT-70" transform="translate(305.761719 0)"/>
       <use xlink:href="#ArialMT-20" transform="translate(361.376953 0)"/>
       <use xlink:href="#ArialMT-6f" transform="translate(389.160156 0)"/>
       <use xlink:href="#ArialMT-66" transform="translate(444.775391 0)"/>
       <use xlink:href="#ArialMT-20" transform="translate(472.558594 0)"/>
       <use xlink:href="#ArialMT-73" transform="translate(500.341797 0)"/>
       <use xlink:href="#ArialMT-70" transform="translate(550.341797 0)"/>
       <use xlink:href="#ArialMT-6c" transform="translate(605.957031 0)"/>
       <use xlink:href="#ArialMT-65" transform="translate(628.173828 0)"/>
       <use xlink:href="#ArialMT-65" transform="translate(683.789062 0)"/>
       <use xlink:href="#ArialMT-6e" transform="translate(739.404297 0)"/>
      </g>
     </g>
    </g>
    <g id="ytick_21">
     <g id="line2d_24">
      <g>
       <use xlink:href="#med381c0b9b" x="195.43625" y="607.790834" style="stroke: #000000; stroke-width: 0.5"/>
      </g>
     </g>
     <g id="text_25">
      <!-- white pulp of spleen -->
      <g transform="translate(110.3875 611.066693) scale(0.09 -0.09)">
       <defs>
        <path id="ArialMT-77" d="M 1034 0 
L 19 3319 
L 600 3319 
L 1128 1403 
L 1325 691 
Q 1338 744 1497 1375 
L 2025 3319 
L 2603 3319 
L 3100 1394 
L 3266 759 
L 3456 1400 
L 4025 3319 
L 4572 3319 
L 3534 0 
L 2950 0 
L 2422 1988 
L 2294 2553 
L 1622 0 
L 1034 0 
z
" transform="scale(0.015625)"/>
       </defs>
       <use xlink:href="#ArialMT-77"/>
       <use xlink:href="#ArialMT-68" transform="translate(72.216797 0)"/>
       <use xlink:href="#ArialMT-69" transform="translate(127.832031 0)"/>
       <use xlink:href="#ArialMT-74" transform="translate(150.048828 0)"/>
       <use xlink:href="#ArialMT-65" transform="translate(177.832031 0)"/>
       <use xlink:href="#ArialMT-20" transform="translate(233.447266 0)"/>
       <use xlink:href="#ArialMT-70" transform="translate(261.230469 0)"/>
       <use xlink:href="#ArialMT-75" transform="translate(316.845703 0)"/>
       <use xlink:href="#ArialMT-6c" transform="translate(372.460938 0)"/>
       <use xlink:href="#ArialMT-70" transform="translate(394.677734 0)"/>
       <use xlink:href="#ArialMT-20" transform="translate(450.292969 0)"/>
       <use xlink:href="#ArialMT-6f" transform="translate(478.076172 0)"/>
       <use xlink:href="#ArialMT-66" transform="translate(533.691406 0)"/>
       <use xlink:href="#ArialMT-20" transform="translate(561.474609 0)"/>
       <use xlink:href="#ArialMT-73" transform="translate(589.257812 0)"/>
       <use xlink:href="#ArialMT-70" transform="translate(639.257812 0)"/>
       <use xlink:href="#ArialMT-6c" transform="translate(694.873047 0)"/>
       <use xlink:href="#ArialMT-65" transform="translate(717.089844 0)"/>
       <use xlink:href="#ArialMT-65" transform="translate(772.705078 0)"/>
       <use xlink:href="#ArialMT-6e" transform="translate(828.320312 0)"/>
      </g>
     </g>
    </g>
    <g id="ytick_22">
     <g id="line2d_25">
      <g>
       <use xlink:href="#med381c0b9b" x="195.43625" y="635.73829" style="stroke: #000000; stroke-width: 0.5"/>
      </g>
     </g>
     <g id="text_26">
      <!-- thymus lobule -->
      <g transform="translate(134.410469 638.959306) scale(0.09 -0.09)">
       <use xlink:href="#ArialMT-74"/>
       <use xlink:href="#ArialMT-68" transform="translate(27.783203 0)"/>
       <use xlink:href="#ArialMT-79" transform="translate(83.398438 0)"/>
       <use xlink:href="#ArialMT-6d" transform="translate(133.398438 0)"/>
       <use xlink:href="#ArialMT-75" transform="translate(216.699219 0)"/>
       <use xlink:href="#ArialMT-73" transform="translate(272.314453 0)"/>
       <use xlink:href="#ArialMT-20" transform="translate(322.314453 0)"/>
       <use xlink:href="#ArialMT-6c" transform="translate(350.097656 0)"/>
       <use xlink:href="#ArialMT-6f" transform="translate(372.314453 0)"/>
       <use xlink:href="#ArialMT-62" transform="translate(427.929688 0)"/>
       <use xlink:href="#ArialMT-75" transform="translate(483.544922 0)"/>
       <use xlink:href="#ArialMT-6c" transform="translate(539.160156 0)"/>
       <use xlink:href="#ArialMT-65" transform="translate(561.376953 0)"/>
      </g>
     </g>
    </g>
    <g id="text_27">
     <!-- ftu -->
     <g transform="translate(14.357813 347.848594) rotate(-90) scale(0.1 -0.1)">
      <use xlink:href="#ArialMT-66"/>
      <use xlink:href="#ArialMT-74" transform="translate(27.783203 0)"/>
      <use xlink:href="#ArialMT-75" transform="translate(55.566406 0)"/>
     </g>
    </g>
   </g>
   <g id="patch_25">
    <path d="M 195.43625 677.38 
L 195.43625 7.2 
" style="fill: none; stroke: #000000; stroke-width: 0.5; stroke-linejoin: miter; stroke-linecap: square"/>
   </g>
   <g id="patch_26">
    <path d="M 343.61625 677.38 
L 343.61625 7.2 
" style="fill: none; stroke: #000000; stroke-width: 0.5; stroke-linejoin: miter; stroke-linecap: square"/>
   </g>
   <g id="patch_27">
    <path d="M 195.43625 677.38 
L 343.61625 677.38 
" style="fill: none; stroke: #000000; stroke-width: 0.5; stroke-linejoin: miter; stroke-linecap: square"/>
   </g>
   <g id="patch_28">
    <path d="M 195.43625 7.2 
L 343.61625 7.2 
" style="fill: none; stroke: #000000; stroke-width: 0.5; stroke-linejoin: miter; stroke-linecap: square"/>
   </g>
  </g>
 </g>
 <defs>
  <clipPath id="pb63e6b8165">
   <rect x="195.43625" y="7.2" width="148.18" height="670.18"/>
  </clipPath>
 </defs>
</svg>
